<svg width="32" height="32" viewBox="0 0 32 32" fill="none" xmlns="http://www.w3.org/2000/svg">
  <rect width="32" height="32" rx="6" fill="#2563eb"/>
  <g fill="white">
    <!-- Letter 'r' -->
    <path d="M6 8h2v12h-2V8z"/>
    <path d="M6 8h4c2 0 3 1 3 3s-1 3-3 3H8v6H6V8z"/>
    
    <!-- Stylized 'i' with upward curve and airplane -->
    <path d="M12 8c0-2 2-4 4-4s4 2 4 4v2h-2V8c0-1-1-2-2-2s-2 1-2 2v2h-2V8z"/>
    <!-- Airplane on the curve -->
    <path d="M16 6c0-1 1-1 1-1s1 0 1 1c0 1-1 1-1 1s-1 0-1-1z"/>
    <path d="M16.5 5l0.5 1h-1l0.5-1z"/>
    <path d="M16 5l0.5 0.5h-1l0.5-0.5z"/>
    
    <!-- Letter 'z' with extended bottom stroke -->
    <path d="M20 8h6v2h-4v4h4v2h-6v-2h4v-4h-4V8z"/>
    <path d="M24 18h2v2h-2v-2z"/>
  </g>
</svg>